Patient4_TMGait_0pt6_01_right_30_EMG.mot
version=1
nRows=19
nColumns=33
inDegrees=no
endheader
time	1LAddLong	2LGlutMax	3LGlutMed	4LIliopsoas	5LSemiMemb	6LBicFemLong	7LRecFem	8LVastMed	9LVastLat	10LGasMed	11LTibAnt	12lTibPost	13LPeroneusLong	14LSol	15LExtDigLong	16LFlexDigLong	17RAddLong	18RGlutMax	19RGlutMed	20RIliopsoas	21RSemiMemb	22RBicFemLong	23RRecFem	24RVastMed	25RVastLat	26RGasMed	27RTibAnt	28RTibPost	29RPeroneusLong	30RSol	31RExtDigLong	32RFlexDigLong
37.148	0.012512	0.008392	0.049438	0.016022	0.006256	-0.002136	0.030975	0.023041	-0.05188	0.19577	-0.005951	0.007477	0.11292	0.25146	-0.006409	-0.31418	-0.028534	-0.065918	-0.059509	0.012817	-0.26672	-0.024414	-0.023041	-0.10422	-0.012054	0.000763	0.071716	-0.005188	-0.20157	-0.026855	-0.00061	-0.007935
37.149	0.012512	0.00351	0.024872	0.023346	-0.001068	0.004883	0.009155	0.022736	0.063934	0.19821	0.000305	0.001373	0.089874	0.32227	-0.022736	0.68466	0.010681	-0.097809	-0.051575	0.00473	-0.20386	0.073395	-0.025482	-0.0914	-0.024261	-0.000458	0.15762	-0.003204	-0.18021	-0.032196	-0.001526	-0.00824
37.15	0.016174	0.027924	0.022888	-0.003052	0	0.001526	0.028381	0.013428	0.12665	0.13351	-0.018005	-0.002441	0.060577	0.36331	-0.042419	-0.32059	0.028839	-0.074768	-0.022583	-0.023193	-0.18387	0.075989	-0.020142	-0.054626	-0.006256	-0.001984	0.12848	-0.005035	0.25635	-0.035858	0.00412	-0.006561
37.151	0.007782	0.038605	0.011597	-0.012207	0.000916	-0.005798	0.019836	0.014648	0.086517	0.13138	-0.050812	-0.001373	0.064697	0.31021	0.009766	0.13046	0.022278	-0.021515	-0.03891	-0.02655	-0.13123	-0.001068	-0.071716	-0.029449	0.010071	-0.001221	0.07843	-0.00885	0.50156	-0.019073	0.001831	-0.009613
37.152	-0.000305	0.042572	-0.044556	-0.009918	0.004578	-0.000305	0.076294	0.014801	-0.04837	0.15213	-0.041046	-0.003662	0.07309	0.19241	0.022125	0.44174	0.000916	0.004578	-0.085602	0.02533	0.032043	0.050964	-0.069122	0.000305	0.016785	0.000763	-0.076447	-0.00412	-0.66147	-0.082092	-0.001831	-0.001221
37.153	-0.001068	0.061188	0.027924	-0.011749	0.00061	-0.002136	0.028992	0.020447	0.039978	0.020142	-0.022736	0.000153	0.071716	-0.077362	0.000305	-0.37964	0.002441	0.067291	-0.08316	0.046997	-0.055237	0.13825	-0.036011	-0.0177	0.010986	-0.004272	-0.17014	-0.006866	-0.60333	-0.02243	-0.000305	-0.010834
37.154	0.003204	0.042419	0.0914	0.006866	0.001831	-0.013885	0.037689	0.019226	0.077362	-0.046539	-0.014496	0.000916	0.096741	-0.49652	-0.019836	0.005035	0.00412	0.023346	0.039978	0.029449	-0.18372	0.13001	-0.028992	-0.046082	0.007935	-0.018311	-0.16205	-0.00885	-0.039673	0.07782	-0.000305	-0.007935
37.155	0.015259	0.070801	0.083923	0.024567	0.001221	-0.011597	0.072784	0.017853	0.019989	-0.019989	-0.010834	0.002441	0.080109	-0.41184	-0.036316	0.063019	-0.027466	0.003967	0.077057	0.01709	0.20035	0.10193	-0.058746	-0.068054	0.015106	-0.021057	-0.083618	-0.003662	0.17822	0.069733	-0.002289	-0.00351
37.156	0.011597	0.081024	0.092926	0.030212	0.000763	-0.00885	0.026245	0.0177	0.029297	0.055237	-0.005798	-0.005188	0.059052	-0.23377	-0.035248	0.063629	-0.026398	-0.018463	0.016174	0.00885	0.22339	0.012512	-0.046234	-0.099182	0.003052	-0.021973	-0.008392	-0.003357	0.24384	0.017395	0.00061	-0.00061
37.157	0.013123	0.050812	0.14801	0.017395	0.007324	-0.024261	-0.083771	0.011597	0.060883	0.062103	-0.00824	0.000763	0.041046	-0.27832	-0.039978	0.034943	-0.032196	-0.024719	-0.168	0.063934	0.034943	-0.037842	-0.03891	-0.085754	0.003967	-0.020752	0.027313	-0.006409	0.26321	-0.020447	0.000305	-0.003815
37.158	0.009308	0.12528	0.069427	0.030212	0.011902	-0.027008	-0.046387	0.00885	0.044861	0.001678	0.007935	0.005341	0.014038	-0.28046	-0.029144	-0.00061	-0.021515	-0.002289	0.24811	-0.006561	-0.06012	0.020599	-0.058136	-0.088348	0	-0.015106	0.033417	-0.00473	0.37491	-0.028534	-0.001068	-0.006256
37.159	0.006866	0.16525	0.09552	0.036316	0.005493	0.008698	0.020294	0.009155	0.061035	-0.026703	0.0383	0.000305	-0.010834	-0.096436	-0.003662	-0.002136	0.000916	0.057526	0.4393	-0.11704	-0.14435	0.28153	-0.030365	-0.063934	0.008087	-0.022888	0.053711	-0.002747	0.27466	-0.031128	-0.000305	-0.003357
37.16	0.002441	0.1236	0.0383	0.022583	-0.003662	0.007629	0.010071	0.010071	0.067139	-0.041199	0.055389	0.006104	-0.02182	-0.031433	0.005951	-0.010986	0.040436	0.022736	0.25986	-0.018768	-0.17242	0.22461	-0.029755	-0.093536	0.000458	-0.022583	0.075378	-0.005035	-0.31647	-0.045013	0.000153	-0.009613
37.161	-0.001373	0.068512	0.06546	0.014496	0.001678	-0.00824	0.018616	0.012054	0.054169	-0.029144	0.043793	0.005035	-0.023956	0.009918	0.007935	-0.015259	0.0177	-0.021057	0.072479	0.054016	-0.19577	0.10101	-0.019073	-0.092316	-0.001678	-0.019073	0.049591	-0.010071	-0.78339	-0.075989	-0.002747	-0.011139
37.162	0.009918	0.060577	-0.032043	0.012665	0.006866	-0.007935	0.005341	0.007019	0.076599	-0.024872	-0.011139	0.005188	-0.006256	-0.034332	-0.012512	-0.009766	-0.005188	-0.02594	0.15213	0.01358	-0.13672	0.14664	-0.049744	-0.084076	0.010071	-0.020905	0.054626	-0.005493	-0.70389	-0.074005	-0.005341	-0.006104
37.163	0.013733	0.068054	-0.062103	-0.029144	0.010071	-0.012207	0.055542	0.008087	0.099945	-0.036011	-0.007324	0.000153	0.02243	-0.11704	-0.003052	-0.001373	-0.033417	0.011139	0.17792	-0.075531	0.13321	0.20248	-0.098877	0.018158	0.026245	-0.026855	0.069427	-0.00885	-0.13992	0.015869	-0.00061	-0.012207
37.164	0.006714	0.06546	-0.048828	0.001526	0.009155	-0.002441	0.047913	0.011902	0.04425	-0.018463	-0.018005	0.000763	0.032654	-0.083771	0.097961	-0.012665	-0.064392	0.038147	0.22324	-0.075226	0.018768	0.16586	-0.029449	0.023193	0.021515	-0.025482	0.047455	-0.003815	0.30868	-0.005798	0.000916	-0.013123
37.165	0.008392	0.042114	-0.014954	-0.012054	-0.01236	-0.005951	0.037384	0.01297	0.069427	-0.017548	-0.012665	0.00061	0.010223	-0.063477	0.052948	-0.011444	-0.061493	0.04837	0.22568	-0.11841	0.28931	0.00412	-0.019989	0.026093	0.024719	-0.025024	0.007629	-0.01297	0.16678	-0.01358	0.001068	-0.009918
37.166	0.008545	0.062256	0.030975	-0.019379	-0.000305	0.001068	0.068817	0.017395	0.087738	-0.024414	-0.00351	0.008545	-0.014496	0.00473	-0.033875	-0.014038	-0.083313	0.088959	0.082855	-0.075531	0.21622	-0.13641	-0.045166	0.006561	0.024719	-0.022736	0.023651	-0.001678	-0.46493	-0.048065	-0.001678	-0.00824
